<?xml version="1.0" encoding="utf-8"?>
<!-- Svg Vector Icons : http://www.onlinewebfonts.com/icon -->
<!DOCTYPE svg PUBLIC "-//W3C//DTD SVG 1.1//EN" "http://www.w3.org/Graphics/SVG/1.1/DTD/svg11.dtd">
<svg version="1.1" xmlns="http://www.w3.org/2000/svg" xmlns:xlink="http://www.w3.org/1999/xlink" x="0px" y="0px" viewBox="0 0 1000 1000" enable-background="new 0 0 1000 1000" xml:space="preserve">
<metadata> Svg Vector Icons : http://www.onlinewebfonts.com/icon </metadata>
<g><g transform="translate(0.000000,511.000000) scale(0.100000,-0.100000)"><path d="M3782.7,4976.6c-140.4-51.1-283.4-153.2-360-252.8c-148.1-194.1-143-84.3-143-2795.8c0-1368.6-7.7-2484.3-15.3-2474.1c-10.2,7.7-30.6,160.9-51.1,339.6c-46,449.4-84.3,523.4-436.6,819.6c-337,280.9-451.9,344.7-671.5,357.5c-436.6,30.6-791.5-303.8-791.5-745.6c0-224.7,63.8-367.7,268.1-607.7c137.9-163.4,158.3-204.3,349.8-727.7c260.4-717.5,594.9-1557.5,651.1-1639.2c25.5-35.7,339.6-349.8,697-699.6c357.5-347.3,661.3-651.1,676.6-674.1c12.8-25.5,23-143,25.5-265.5c0-217,2.5-224.7,84.2-306.4l81.7-84.2l1787.3-7.7c1937.9-7.7,1886.9-10.2,1976.2,130.2c20.4,33.2,43.4,168.5,53.6,337c15.3,263,23,293.6,120,472.4c260.4,490.2,459.6,1080,543.8,1616.2c63.8,403.4,76.6,1187.3,28.1,1881.7c-22.9,329.4-53.6,865.6-68.9,1187.3c-25.5,584.7-28.1,587.2-107.2,753.2c-145.5,291.1-390.6,426.4-732.8,403.4c-140.4-10.2-206.8-30.6-303.8-89.4l-122.6-79.1l-30.6,135.3c-117.4,523.4-717.5,760.9-1161.7,459.6c-53.6-35.7-99.6-63.8-102.1-58.7c-5.1,5.1-20.4,46-40.8,91.9c-43.4,109.8-201.7,270.6-337,339.6c-137.9,68.9-388.1,91.9-546.4,48.5c-66.4-20.4-171.1-71.5-232.4-120c-61.3-46-114.9-84.3-122.5-84.3s-12.8,400.9-12.8,888.5c0,988.1-7.6,1036.6-163.4,1223C4385.2,4963.8,4027.8,5068.5,3782.7,4976.6z M4242.3,4491.4l84.2-91.9V2722c0-924.3,10.2-1723.5,23-1777.1c63.8-265.5,393.2-347.2,548.9-137.9c51.1,68.9,53.6,112.4,66.4,753.2c12.8,615.3,17.9,689.4,61.3,753.2c135.3,201.7,451.9,191.5,577-15.3c46-74.1,51.1-130.2,51.1-605.1c0-574.5,10.2-615.3,148.1-697c104.7-61.3,229.8-43.4,319.2,48.5c63.8,61.3,63.8,74,74.1,467.2c7.6,395.8,10.2,403.4,79.1,495.3c135.3,178.7,380.4,186.4,541.3,17.9l76.6-79.2l12.8-518.3c12.8-561.7,30.6-628.1,168.5-679.2c125.1-48.5,214.5-30.6,306.4,61.3c84.3,84.3,86.8,91.9,86.8,301.3c0,247.7,46,362.6,176.2,439.2c107.2,63.8,268.1,61.3,354.9-2.5c153.2-114.9,158.3-130.2,183.8-735.3c15.3-308.9,38.3-699.6,51.1-868.1c46-536.2,61.3-1483.4,28.1-1805.2c-61.3-633.2-196.6-1097.9-482.6-1680c-191.5-388.1-194.1-400.9-204.3-617.9l-10.2-224.7H5970.8H4377.6v153.2c0,265.5-38.3,314-789,1046.8l-679.2,661.3l-209.4,531.1c-114.9,291.1-301.3,781.3-413.6,1087.7c-199.2,543.9-209.4,564.3-372.8,753.2C1821.8-40.6,1735,87.1,1722.2,138.1c-61.3,217,109.8,431.5,344.7,431.5c122.6,0,160.8-23,434.1-257.9c168.5-143,245.1-229.8,280.9-309c25.5-61.3,122.6-275.8,217-480s186.4-400.9,201.7-441.7c15.3-38.3,56.2-81.7,91.9-94.5c86.8-33.2,260.4,5.1,326.8,71.5c48.5,48.5,48.5,99.6,46,2471.6c0,1332.8,5.1,2525.2,12.8,2647.7c12.8,191.5,25.5,237.5,81.7,301.3c84.3,102.1,145.5,127.7,286,114.9C4135,4585.9,4175.9,4565.5,4242.3,4491.4z"/></g></g>
</svg>