<svg width="48" height="46" viewBox="0 0 48 46" fill="none" xmlns="http://www.w3.org/2000/svg">
<ellipse cx="22.7599" cy="23" rx="22.7599" ry="23" fill="#0C90B3"/>
<path d="M44.1444 22.9996C44.1444 34.9652 34.5644 44.6548 22.7599 44.6548C10.9553 44.6548 1.37538 34.9652 1.37538 22.9996C1.37538 11.034 10.9553 1.34441 22.7599 1.34441C34.5644 1.34441 44.1444 11.034 44.1444 22.9996Z" fill="#0C90B3" stroke="white"/>
<path d="M23.4805 12.229L23.3255 11.423C23.3255 11.1957 23.4599 11.082 23.7285 11.082L25.4645 11.175L28.5025 11.051C28.8125 11.051 28.9675 11.1957 28.9675 11.485C28.9675 11.7537 28.8332 11.888 28.5645 11.888L27.6345 11.981C26.9319 12.043 26.2499 12.4563 25.5885 13.221L18.7685 20.909C18.4792 21.2397 18.1175 21.498 17.6835 21.684C18.1175 21.87 18.4792 22.1387 18.7685 22.49L26.3945 30.767C27.1592 31.573 27.8412 31.9967 28.4405 32.038L29.3395 32.1C29.6082 32.1413 29.7425 32.2963 29.7425 32.565C29.7425 32.813 29.5979 32.937 29.3085 32.937C26.8699 32.8957 25.4439 32.875 25.0305 32.875C24.6379 32.875 24.2349 32.6477 23.8215 32.193L16.4125 23.73C15.8959 23.11 15.4102 22.8 14.9555 22.8C14.9555 22.8 14.9452 22.8 14.9245 22.8H14.1805C14.0359 22.8 13.9635 22.9137 13.9635 23.141V30.829C13.9635 31.635 14.2425 32.069 14.8005 32.131L15.1105 32.162C15.3379 32.2033 15.4515 32.3377 15.4515 32.565C15.4515 32.8543 15.3069 32.999 15.0175 32.999L12.6925 32.875L9.62352 32.999C9.31352 32.999 9.15852 32.875 9.15852 32.627C9.15852 32.3583 9.28252 32.2033 9.53052 32.162L10.0575 32.1C10.9049 31.9967 11.3285 31.573 11.3285 30.829V13.221C11.3285 12.5183 10.8532 12.105 9.90252 11.981L9.00352 11.888C8.77619 11.8467 8.66252 11.7123 8.66252 11.485C8.66252 11.1957 8.80719 11.051 9.09652 11.051L12.5995 11.175L15.0175 11.051C15.3275 11.051 15.4825 11.1853 15.4825 11.454C15.4825 11.702 15.3482 11.8467 15.0795 11.888L14.8005 11.919C14.2425 12.0223 13.9635 12.4563 13.9635 13.221V21.002C13.9635 21.25 14.0565 21.374 14.2425 21.374H15.0485C15.5445 21.374 16.0509 21.064 16.5675 20.444L23.0775 13.035C23.3462 12.7457 23.4805 12.477 23.4805 12.229ZM35.4288 13.221V33.03C35.4288 35.138 35.0775 36.8327 34.3748 38.114C33.6928 39.416 32.7318 40.4803 31.4918 41.307C30.5825 41.8857 29.9935 42.175 29.7248 42.175C29.4768 42.175 29.3115 42.1027 29.2288 41.958C29.0842 41.6893 29.0118 41.5033 29.0118 41.4C29.0118 41.2967 29.0842 41.1933 29.2288 41.09C30.2828 40.346 30.9545 39.7983 31.2438 39.447C32.2772 38.3517 32.7938 36.7397 32.7938 34.611V13.221C32.7938 12.477 32.3185 12.0637 31.3678 11.981L30.4688 11.888C30.2415 11.8467 30.1278 11.7123 30.1278 11.485C30.1278 11.1957 30.2725 11.051 30.5618 11.051L34.0648 11.175L37.1338 11.051C37.4438 11.051 37.5988 11.175 37.5988 11.423C37.5988 11.7123 37.4645 11.8673 37.1958 11.888L36.6688 11.981C35.8422 12.1257 35.4288 12.539 35.4288 13.221Z" fill="white"/>
</svg>
